<svg width="1435" height="308" viewBox="0 0 1435 308" fill="none" xmlns="http://www.w3.org/2000/svg">
<path d="M1272.2 52H1381V100.8H1351.4V102.4C1359.66 108.8 1363.8 118.267 1363.8 130.8C1363.8 172.667 1336.86 193.6 1283 193.6H1257.8C1255.66 193.6 1254.6 194.8 1254.6 197.2C1254.6 199.6 1255.66 200.8 1257.8 200.8H1321.4C1355.53 200.8 1372.6 214.667 1372.6 242.4C1372.6 285.6 1338.86 307.2 1271.4 307.2C1244.2 307.2 1223.13 304.133 1208.2 298C1193.26 291.867 1185.8 280.8 1185.8 264.8C1185.8 256 1190.46 249.467 1199.8 245.2V243.6C1187.53 237.2 1181.4 226.533 1181.4 211.6C1181.4 196.667 1191.53 185.067 1211.8 176.8C1193.13 163.467 1183.8 145.067 1183.8 121.6C1183.8 97.8667 1191.53 80.4 1207 69.2C1222.46 57.7333 1244.2 52 1272.2 52ZM1275.8 113.2C1268.86 113.2 1265.4 119.867 1265.4 133.2C1265.4 146.533 1269.13 153.2 1276.6 153.2C1283.53 153.2 1287 146.667 1287 133.6C1287 126.4 1286.2 121.2 1284.6 118C1283 114.8 1280.06 113.2 1275.8 113.2ZM1254.6 260H1300.2C1302.6 260 1303.8 259.067 1303.8 257.2V254.8C1303.8 252.933 1302.6 252 1300.2 252H1254.6C1252.73 252 1251.8 252.933 1251.8 254.8V257.2C1251.8 259.067 1252.73 260 1254.6 260Z" fill="#05DF72"/>
<path d="M1107.71 52C1145.04 52 1163.71 70.1333 1163.71 106.4V248.4H1079.31V124.4C1079.31 120.133 1077.04 118 1072.51 118C1068.24 118 1063.44 119.333 1058.11 122V248.4H974.906V56.8H1050.51L1052.91 69.2C1069.71 57.7333 1087.97 52 1107.71 52Z" fill="#05DF72"/>
<path d="M948.796 248.401H865.596V60.8008H948.796V248.401Z" fill="#05DF72"/>
<path d="M782.706 52C820.04 52 838.706 70.1333 838.706 106.4V248.4H754.306V124.4C754.306 120.133 752.04 118 747.506 118C743.24 118 738.44 119.333 733.106 122V248.4H649.906V56.8H725.506L727.906 69.2C744.706 57.7333 762.973 52 782.706 52Z" fill="#05DF72"/>
<path d="M569.816 52C607.149 52 625.816 70.1333 625.816 106.4V248.4H541.416V124.4C541.416 120.133 539.149 118 534.616 118C530.349 118 525.549 119.333 520.216 122V248.4H437.016V56.8H512.616L515.016 69.2C531.816 57.7333 550.082 52 569.816 52Z" fill="#05DF72"/>
<path d="M278.191 252.401C240.324 252.401 221.391 234.267 221.391 198.001V56.8008H305.391V182.401C305.391 186.667 307.257 188.801 310.991 188.801C314.991 188.801 320.191 187.467 326.591 184.801V56.8008H410.191V247.601H330.191V237.601H327.791C312.324 247.467 295.791 252.401 278.191 252.401Z" fill="#05DF72"/>
<path d="M196.4 80C196.4 96 193.733 108.8 188.4 118.4C183.333 127.733 175.333 136 164.4 143.2L201.6 248.4H113.2L88.4 162.8H82V248.4H0V0H106C136.933 0 159.733 6.53334 174.4 19.6C189.067 32.4 196.4 52.5333 196.4 80ZM90.4 114C96.5333 114 100.8 112.267 103.2 108.8C105.867 105.067 107.2 98.6667 107.2 89.6C107.2 80.5334 105.867 74.2667 103.2 70.8C100.533 67.3333 96.4 65.6 90.8 65.6H80.4V114H90.4Z" fill="#05DF72"/>
<circle cx="1415.5" cy="216.9" r="19.5" fill="#05DF72"/>
</svg>
