<svg width="502" height="502" viewBox="0 0 502 502" fill="none" xmlns="http://www.w3.org/2000/svg">
<path d="M250.99 501.98C389.608 501.98 501.98 389.608 501.98 250.99C501.98 112.372 389.608 0 250.99 0C112.372 0 0 112.372 0 250.99C0 389.608 112.372 501.98 250.99 501.98Z" fill="#070707"/>
<path d="M346.4 207C346.4 223 343.733 235.8 338.4 245.4C333.333 254.733 325.333 263 314.4 270.2L351.6 375.4H263.2L238.4 289.8H232V375.4H150V127H256C286.933 127 309.733 133.533 324.4 146.6C339.067 159.4 346.4 179.533 346.4 207ZM240.4 241C246.533 241 250.8 239.267 253.2 235.8C255.867 232.067 257.2 225.667 257.2 216.6C257.2 207.533 255.867 201.267 253.2 197.8C250.533 194.333 246.4 192.6 240.8 192.6H230.4V241H240.4Z" fill="#05DF72"/>
<circle cx="386.1" cy="356.5" r="19.5" fill="#05DF72"/>
</svg>
