<svg width="694" height="694" viewBox="0 0 694 694" fill="none" xmlns="http://www.w3.org/2000/svg">
<path d="M0 90.0013C0 40.2957 40.2939 0 89.9996 0C259.89 0 430.28 0 603.999 0C653.704 0 694 40.2939 694 89.9996C694 259.89 694 430.28 694 603.999C694 653.704 653.706 694 604 694C434.11 694 263.72 694 90.0013 694C40.2957 694 0 653.706 0 604C0 434.11 0 263.72 0 90.0013Z" fill="#141418"/>
<path d="M217.582 142.977C255.86 142.398 294.138 141.957 332.42 141.687C350.2 141.558 367.976 141.383 385.754 141.1C402.936 140.828 420.116 140.68 437.3 140.616C446.991 140.548 456.68 140.354 466.369 140.158C502.772 140.146 528.516 143.085 556.3 167.858C574.488 188.685 573.591 209.887 573.111 236.28C573.053 240.292 572.996 244.304 572.936 248.438C571.592 297.217 561.157 326.275 527.055 362.162C509.001 378.709 491.976 391.786 466.639 391.786C468.673 395.398 470.708 399.011 472.804 402.732C480.412 416.251 488.015 429.773 495.613 443.297C500.495 451.983 505.384 460.664 510.273 469.345C513.371 474.861 516.469 480.378 519.661 486.062C523.926 493.645 523.926 493.645 528.277 501.381C536.328 516.104 543.904 530.997 551.319 546.048C442.259 557.295 442.259 557.295 410.99 534.56C401.626 519.458 394.425 504.904 387.59 488.574C375.801 463.044 360.031 439.595 345.224 415.734C340.676 408.151 340.676 408.151 336.036 400.416C333.173 395.65 330.311 390.884 327.362 385.974C324.804 381.701 322.246 377.427 319.61 373.025C312.707 361.849 312.707 361.849 303.806 353.584C297.28 347 297.28 347 297.28 337.048C313.639 326.153 318.701 325.859 337.694 325.735C342.679 325.632 347.665 325.53 352.802 325.424C363.257 325.295 373.713 325.204 384.168 325.152C414.787 324.445 433.352 322.696 456.677 302.215C470.662 284.433 467.703 264.119 466.639 242.5C456.921 232.792 438.512 236.26 425.214 235.95C421.572 235.846 417.931 235.743 414.179 235.636C402.506 235.31 390.832 235.017 379.158 234.725C371.261 234.51 363.365 234.293 355.468 234.074C336.073 233.54 316.677 233.036 297.28 232.548C296.843 238.321 296.407 244.094 295.957 250.042C291.945 285.944 282.363 320.732 273.62 355.709C271.813 363.023 270.01 370.338 268.21 377.653C264.637 392.172 261.052 406.689 257.46 421.203C250.649 448.785 244.058 476.418 237.506 504.061C232.575 524.845 232.575 524.845 227.544 546.048C193.025 546.048 158.505 546.048 122.94 546.048C128.025 515.568 134.081 485.695 141.678 455.738C142.538 452.331 143.399 448.923 144.285 445.413C146.148 438.038 148.015 430.665 149.885 423.292C158.234 390.363 166.507 357.415 174.791 324.469C176.964 315.834 179.142 307.2 181.324 298.568C184.555 285.778 187.77 272.984 190.983 260.189C191.933 256.445 192.883 252.7 193.862 248.842C202.647 213.743 210.122 178.377 217.582 142.977Z" fill="#05DF72"/>
<path d="M282.337 297.238C285.624 297.238 288.912 297.238 292.299 297.238C292.299 305.449 292.299 313.66 292.299 322.119C336.681 322.119 381.063 322.119 426.79 322.119C426.79 323.761 426.79 325.403 426.79 327.095C421.701 327.282 421.701 327.282 416.51 327.473C401.153 328.05 385.797 328.661 370.441 329.272C365.102 329.468 359.763 329.664 354.262 329.865C346.581 330.178 346.581 330.178 338.744 330.497C334.023 330.679 329.301 330.862 324.437 331.05C311.545 331.645 311.545 331.645 297.28 337.048C295.636 340.332 293.993 343.616 292.299 347C292.299 340.431 292.299 333.863 292.299 327.095C289.011 327.095 285.724 327.095 282.337 327.095C282.439 332.74 282.542 338.385 282.648 344.201C282.337 361.929 282.337 361.929 277.355 366.905C276.329 373.512 275.531 380.156 274.865 386.81C272.928 406.161 272.928 406.161 267.393 411.69C266.238 419.228 265.34 426.806 264.591 434.394C263.965 440.562 263.965 440.562 263.327 446.854C263.025 450.03 262.723 453.205 262.412 456.476C259.124 456.476 255.837 456.476 252.45 456.476C251.833 462.121 251.217 467.766 250.582 473.582C249.554 479.432 248.527 485.282 247.469 491.31C242.537 493.773 242.537 493.773 237.506 496.286C250.272 429.314 265.191 363.226 282.337 297.238Z" fill="#05DF72"/>
<path d="M257.431 376.857C264.791 396.38 260.071 411.508 255.271 431.362C254.49 434.647 253.709 437.933 252.904 441.318C250.409 451.772 247.85 462.21 245.289 472.649C243.583 479.749 241.88 486.851 240.182 493.953C236.025 511.332 231.783 528.688 227.544 546.048C193.025 546.048 158.505 546.048 122.94 546.048C126.227 527.984 129.515 509.92 132.902 491.31C134.546 491.31 136.19 491.31 137.883 491.31C137.883 504.447 137.883 517.584 137.883 531.119C165.828 532.761 193.772 534.403 222.563 536.095C223.796 527.269 225.028 518.442 226.299 509.348C230.764 480.273 236.453 451.609 242.799 422.887C243.667 418.914 244.536 414.941 245.43 410.847C251.825 382.458 251.825 382.458 257.431 376.857Z" fill="#05DF72"/>
<path d="M217.582 142.977C316.208 142.977 414.835 142.976 516.451 142.976C516.451 144.618 516.451 146.26 516.451 147.952C511.148 148.029 511.148 148.029 505.739 148.108C472.462 148.595 439.185 149.105 405.909 149.641C388.8 149.916 371.692 150.182 354.583 150.427C334.924 150.71 315.265 151.031 295.607 151.354C286.368 151.479 286.368 151.479 276.943 151.606C271.259 151.705 265.575 151.805 259.72 151.907C254.698 151.984 249.676 152.062 244.502 152.141C232.462 152.157 232.462 152.157 222.563 157.905C222.666 163.55 222.768 169.194 222.874 175.01C222.563 192.738 222.563 192.738 217.582 197.714C215.751 209.3 214.083 220.912 212.601 232.548C209.313 232.548 206.025 232.548 202.638 232.548C203.22 225.08 203.854 217.617 204.506 210.155C204.853 205.998 205.2 201.841 205.557 197.559C208.133 179.108 213.059 161.05 217.582 142.977Z" fill="#05DF72"/>
<path d="M197.657 232.548C199.301 232.548 200.945 232.548 202.638 232.548C203.996 261.032 202.132 281.992 192.345 308.609C176.993 353.209 164.382 399.141 167.77 446.524C162.839 448.987 162.839 448.987 157.808 451.5C154.397 460.893 154.397 460.893 152.204 471.716C151.369 475.366 150.535 479.016 149.675 482.776C149.071 485.592 148.467 488.408 147.846 491.31C144.558 491.31 141.27 491.31 137.883 491.31C148.092 432.538 161.406 374.924 176.176 317.143C178.27 308.876 180.361 300.608 182.451 292.34C187.494 272.402 192.567 252.473 197.657 232.548Z" fill="#05DF72"/>
<path d="M132.902 456.476C136.19 458.118 139.477 459.76 142.864 461.452C138.945 490.431 130.831 517.944 122.94 546.048C157.459 546.048 191.979 546.048 227.544 546.048C229.188 532.911 230.832 519.773 232.525 506.238C235.813 507.88 239.1 509.522 242.487 511.214C239.565 528.734 235.73 539.643 227.544 556C191.381 556 155.218 556 117.959 556C116.315 547.789 114.671 539.579 112.978 531.119C114.621 529.477 116.265 527.835 117.959 526.143C118.678 521.011 119.397 515.879 120.138 510.592C122.899 491.591 127.294 474.778 132.902 456.476Z" fill="#05DF72"/>
<path d="M177.732 237.524C182.664 239.166 187.595 240.808 192.676 242.5C190.112 277.509 184.285 310.537 175.553 344.512C174.471 348.951 173.389 353.39 172.275 357.963C171.206 362.197 170.136 366.43 169.035 370.792C168.075 374.593 167.116 378.394 166.127 382.31C162.789 391.786 162.789 391.786 152.827 401.738C156.187 362.801 164.128 325.376 172.751 287.286C176.039 287.286 179.326 287.286 182.714 287.286C181.07 270.864 179.426 254.443 177.732 237.524Z" fill="#05DF72"/>
<path d="M297.28 232.548C351.525 232.548 405.769 232.548 461.658 232.548C461.658 234.19 461.658 235.832 461.658 237.524C410.701 237.524 359.744 237.524 307.242 237.524C305.599 252.303 303.955 267.082 302.261 282.31C297.33 287.236 292.399 292.162 287.318 297.238C289.923 275.3 292.934 254.257 297.28 232.548Z" fill="#05DF72"/>
<path d="M282.337 297.238C285.624 297.238 288.912 297.238 292.299 297.238C292.299 305.449 292.299 313.66 292.299 322.119C336.681 322.119 381.063 322.119 426.79 322.119C426.79 323.761 426.79 325.403 426.79 327.095C423.398 327.22 420.005 327.345 416.51 327.473C401.153 328.05 385.797 328.661 370.441 329.272C365.102 329.468 359.763 329.664 354.262 329.865C349.141 330.074 344.02 330.282 338.744 330.497C334.023 330.679 329.301 330.862 324.437 331.05C311.545 331.645 311.545 331.645 297.28 337.048C295.636 340.332 293.993 343.616 292.299 347C292.299 340.431 292.299 333.863 292.299 327.095C289.011 327.095 285.724 327.095 282.337 327.095C280.693 330.38 279.049 333.664 277.355 337.048C278.999 323.91 280.643 310.773 282.337 297.238Z" fill="#05DF72"/>
<path d="M531.394 342.024C534.682 343.666 537.969 345.308 541.356 347C535.154 352.625 528.922 358.217 522.677 363.795C519.21 366.912 515.742 370.03 512.17 373.242C496.633 385.761 486.783 391.786 466.639 391.786C471.62 376.858 471.62 376.857 480.649 370.948C491.545 366.905 491.545 366.905 511.469 366.905C511.469 361.978 511.469 357.052 511.469 351.976C520.809 346.689 520.809 346.689 531.394 342.024Z" fill="#05DF72"/>
<path d="M217.582 142.977C222.513 147.903 227.444 152.829 232.525 157.905C229.238 157.905 225.95 157.905 222.563 157.905C222.666 163.55 222.768 169.194 222.874 175.01C222.563 192.738 222.563 192.738 217.582 197.714C215.751 209.3 214.083 220.912 212.601 232.548C209.313 232.548 206.025 232.548 202.638 232.548C205.045 201.668 209.279 172.836 217.582 142.977Z" fill="#05DF72"/>
<path d="M332.148 396.762C347.085 410.711 357.867 424.6 368.261 442.17C372.153 448.655 372.153 448.655 376.122 455.271C381.96 466.429 381.96 466.429 381.96 476.381C378.672 476.381 375.384 476.381 371.997 476.381C368.71 466.528 365.422 456.675 362.035 446.524C358.747 446.524 355.46 446.524 352.073 446.524C332.148 413.557 332.148 413.557 332.148 396.762Z" fill="#05DF72"/>
<path d="M212.599 138C215.886 139.642 219.174 141.284 222.561 142.976C215.986 172.535 209.413 202.093 202.638 232.548C190.382 214.182 192.54 209.205 196.41 188.073C197.309 182.896 198.208 177.72 199.134 172.386C202.256 159.477 206.064 149.48 212.599 138Z" fill="#05DF72"/>
<path d="M461.658 237.524C464.946 239.166 468.233 240.808 471.62 242.5C473.256 266.19 473.673 278.208 462.903 299.726C459.205 303.832 455.506 307.937 451.696 312.167C445.121 312.167 438.545 312.167 431.771 312.167C433.415 308.882 435.059 305.598 436.752 302.214C441.684 302.214 446.615 302.214 451.696 302.214C457.576 281.236 461.658 259.342 461.658 237.524Z" fill="#05DF72"/>
<path d="M456.677 227.571C469.005 232.498 469.005 232.498 481.583 237.524C483.155 263.701 479.918 279.551 466.639 302.214C464.995 298.93 463.352 295.646 461.658 292.262C463.302 288.978 464.946 285.693 466.639 282.31C468.96 253.041 468.96 253.041 456.677 227.571Z" fill="#05DF72"/>
<path d="M556.3 167.858C571.243 172.834 571.243 172.833 577.275 180.842C582.783 197.513 580.951 211.409 579.338 228.815C578.785 235.102 578.233 241.388 577.664 247.865C576.952 255.062 576.952 255.062 576.224 262.405C574.581 262.405 572.937 262.405 571.243 262.405C570.877 255.294 570.877 255.294 570.504 248.04C570.131 241.798 569.759 235.557 569.375 229.126C569.029 222.949 568.682 216.772 568.325 210.407C566.44 194.265 563.175 182.459 556.3 167.858Z" fill="#05DF72"/>
<path d="M536.375 347C536.375 365.343 532.945 372.624 521.432 386.81C505.554 388.365 505.554 388.365 491.545 386.81C497.093 382.499 497.093 382.499 502.752 378.101C514.761 368.285 525.618 358.144 536.375 347Z" fill="#05DF72"/>
<path d="M381.96 476.381C421.809 524.721 421.809 524.721 421.809 541.071C418.521 541.071 415.234 541.071 411.846 541.071C404.336 531.974 404.336 531.974 396.28 519.923C393.596 515.997 390.912 512.071 388.147 508.026C381.96 496.286 381.96 496.286 381.96 476.381Z" fill="#05DF72"/>
<path d="M496.526 391.786C491.595 393.428 486.663 395.07 481.583 396.762C486.514 408.257 491.445 419.752 496.526 431.595C491.595 434.058 491.595 434.058 486.564 436.571C466.639 402.982 466.639 402.983 466.639 391.786C481.583 386.81 481.583 386.81 496.526 391.786Z" fill="#05DF72"/>
<path d="M277.354 297.238C284.231 315.982 280.321 329.324 275.175 348.244C273.743 353.607 272.311 358.969 270.836 364.494C269.699 368.574 268.563 372.654 267.392 376.857C265.748 376.857 264.104 376.857 262.411 376.857C260.52 346.01 263.232 324.867 277.354 297.238Z" fill="#05DF72"/>
<path d="M197.657 232.548C199.301 232.548 200.945 232.548 202.638 232.548C203.813 261.3 201.978 284.864 192.674 312.167C191.03 312.167 189.387 312.167 187.693 312.167C186.663 283.36 189.729 260.268 197.657 232.548Z" fill="#05DF72"/>
</svg>
